<svg xmlns="http://www.w3.org/2000/svg" width="10.046" height="10.046" viewBox="0 0 10.046 10.046"><defs><style>.a{fill:#01cff0;}</style></defs><g transform="translate(-323.5 -323.5)"><path class="a" d="M332.175,333.546h-7.3a1.372,1.372,0,0,1-1.371-1.371v-7.3a1.372,1.372,0,0,1,1.371-1.371h3.87a.383.383,0,0,1,0,.766h-3.87a.606.606,0,0,0-.606.606v7.3a.606.606,0,0,0,.606.606h7.3a.606.606,0,0,0,.606-.606v-3.652a.383.383,0,1,1,.766,0v3.652A1.372,1.372,0,0,1,332.175,333.546Z" transform="translate(0 0)"/><path class="a" d="M471.237,324.067a.079.079,0,0,0,0-.023c0-.007,0-.012,0-.016s0-.014,0-.019,0-.012,0-.019,0-.012,0-.019l-.007-.019-.007-.019-.007-.016a.037.037,0,0,0-.009-.016l-.009-.016-.009-.016s-.007-.012-.012-.016l-.012-.014a.054.054,0,0,0-.016-.016s0-.007-.009-.009l0,0-.019-.019-.009-.007a.084.084,0,0,0-.023-.016.24.24,0,0,0-.026-.016l-.014-.009-.016-.007a.058.058,0,0,1-.016-.009.033.033,0,0,0-.014,0l-.021-.007-.012,0a.275.275,0,0,0-.042-.009l-.021,0h-.014l-.026,0h-3.181a.383.383,0,0,0,0,.766h2.248l-5.341,5.232a.382.382,0,0,0,.269.654.391.391,0,0,0,.269-.109l5.357-5.255v2.269a.383.383,0,0,0,.766,0v-3.19Z" transform="translate(-137.691 -0.195)"/></g></svg>