<svg xmlns="http://www.w3.org/2000/svg" width="66.353" height="13.271" viewBox="0 0 66.353 13.271">
  <path id="Caminho_363" data-name="Caminho 363" d="M19.526,38.455c.077,0,.077.161.077.241l-.694,4.015c-.077.4.308.8.694.562l3.391-1.847c.154-.08.231-.08.308,0l3.468,1.927a.518.518,0,0,0,.694-.562l-.616-3.934a.3.3,0,0,1,.077-.241L29.7,35.725a.6.6,0,0,0-.231-.964L25.691,34.2c-.077,0-.154-.08-.231-.161l-1.7-3.613a.5.5,0,0,0-.925,0l-1.7,3.613c-.077.08-.154.161-.231.161l-3.853.562a.513.513,0,0,0-.308.883Z" transform="translate(-3.321 -30.125)" fill="#fff"/>
  <path id="Caminho_364" data-name="Caminho 364" d="M19.526,38.455c.077,0,.077.161.077.241l-.694,4.015c-.077.4.308.8.694.562l3.391-1.847c.154-.08.231-.08.308,0l3.468,1.927a.518.518,0,0,0,.694-.562l-.616-3.934a.3.3,0,0,1,.077-.241L29.7,35.725a.6.6,0,0,0-.231-.964L25.691,34.2c-.077,0-.154-.08-.231-.161l-1.7-3.613a.5.5,0,0,0-.925,0l-1.7,3.613c-.077.08-.154.161-.231.161l-3.853.562a.513.513,0,0,0-.308.883Z" transform="translate(-16.592 -30.125)" fill="#fff"/>
  <path id="Caminho_365" data-name="Caminho 365" d="M19.526,38.455c.077,0,.077.161.077.241l-.694,4.015c-.077.4.308.8.694.562l3.391-1.847c.154-.08.231-.08.308,0l3.468,1.927a.518.518,0,0,0,.694-.562l-.616-3.934a.3.3,0,0,1,.077-.241L29.7,35.725a.6.6,0,0,0-.231-.964L25.691,34.2c-.077,0-.154-.08-.231-.161l-1.7-3.613a.5.5,0,0,0-.925,0l-1.7,3.613c-.077.08-.154.161-.231.161l-3.853.562a.513.513,0,0,0-.308.883Z" transform="translate(9.949 -30.125)" fill="#fff"/>
  <path id="Caminho_360" data-name="Caminho 360" d="M19.526,38.455c.077,0,.077.161.077.241l-.694,4.015c-.077.4.308.8.694.562l3.391-1.847c.154-.08.231-.08.308,0l3.468,1.927a.518.518,0,0,0,.694-.562l-.616-3.934a.3.3,0,0,1,.077-.241L29.7,35.725a.6.6,0,0,0-.231-.964L25.691,34.2c-.077,0-.154-.08-.231-.161l-1.7-3.613a.5.5,0,0,0-.925,0l-1.7,3.613c-.077.08-.154.161-.231.161l-3.853.562a.513.513,0,0,0-.308.883Z" transform="translate(23.22 -30.125)" fill="#fff"/>
  <path id="Caminho_360-2" data-name="Caminho 360" d="M19.526,38.455c.077,0,.077.161.077.241l-.694,4.015c-.077.4.308.8.694.562l3.391-1.847c.154-.08.231-.08.308,0l3.468,1.927a.518.518,0,0,0,.694-.562l-.616-3.934a.3.3,0,0,1,.077-.241L29.7,35.725a.6.6,0,0,0-.231-.964L25.691,34.2c-.077,0-.154-.08-.231-.161l-1.7-3.613a.5.5,0,0,0-.925,0l-1.7,3.613c-.077.08-.154.161-.231.161l-3.853.562a.513.513,0,0,0-.308.883Z" transform="translate(36.49 -30.125)" fill="#fff"/>
</svg>
