<svg xmlns="http://www.w3.org/2000/svg" width="21" height="21" viewBox="0 0 21 21">
  <defs>
    <style>
      .cls-1 {
        fill: none;
      }

      .cls-2, .cls-4 {
        fill: #d2d8d9;
      }

      .cls-3, .cls-4 {
        stroke: none;
      }
    </style>
  </defs>
  <g id="Grupo_92" data-name="Grupo 92" transform="translate(-272 -59)">
    <g id="Grupo_84" data-name="Grupo 84" transform="translate(-1181 -70)">
      <g id="Caminho_62" data-name="Caminho 62" class="cls-1" transform="translate(1453 129)">
        <path class="cls-3" d="M10.5,0A10.5,10.5,0,1,1,0,10.5,10.5,10.5,0,0,1,10.5,0Z"/>
        <path class="cls-4" d="M 10.5 1 C 5.261679649353027 1 1 5.261679649353027 1 10.5 C 1 15.73831939697266 5.261679649353027 20 10.5 20 C 15.73831939697266 20 20 15.73831939697266 20 10.5 C 20 5.261679649353027 15.73831939697266 1 10.5 1 M 10.5 0 C 16.29899024963379 0 21 4.701009750366211 21 10.5 C 21 16.29899024963379 16.29899024963379 21 10.5 21 C 4.701009750366211 21 0 16.29899024963379 0 10.5 C 0 4.701009750366211 4.701009750366211 0 10.5 0 Z"/>
      </g>
      <path id="Caminho_7" data-name="Caminho 7" class="cls-2" d="M218.559,196.256a4.183,4.183,0,0,1,1.538-3.628,9.391,9.391,0,0,0,1.162-1.266,2.219,2.219,0,0,0,.376-1.24,1.9,1.9,0,0,0-.438-1.348,1.684,1.684,0,0,0-1.284-.465,1.849,1.849,0,0,0-1.3.455,1.594,1.594,0,0,0-.494,1.233H215.83a3.368,3.368,0,0,1,1.133-2.637,4.331,4.331,0,0,1,2.95-.969,4.235,4.235,0,0,1,2.949.96,3.43,3.43,0,0,1,1.056,2.687,4.394,4.394,0,0,1-1.43,3.023l-1.155,1.133a3.114,3.114,0,0,0-.64,2.062Zm-.16,2.921a1.2,1.2,0,0,1,.348-.894,1.463,1.463,0,0,1,1.892.009,1.211,1.211,0,0,1,.347.886,1.187,1.187,0,0,1-.338.864,1.5,1.5,0,0,1-1.919,0A1.2,1.2,0,0,1,218.4,199.177Z" transform="translate(1243.328 -53.954)"/>
    </g>
  </g>
</svg>
