<svg xmlns="http://www.w3.org/2000/svg" width="131.427" height="49.58" viewBox="0 0 131.427 49.58">
  <defs>
    <style>
      .cls-1 {
        fill-rule: evenodd;
      }

      .cls-2 {
        fill: #01bfeb;
      }

      .cls-3 {
        fill: #94cc09;
      }

      .cls-4 {
        fill: #fec200;
      }
    </style>
  </defs>
  <g id="Grupo_33" data-name="Grupo 33" transform="translate(-913.96 -26)">
    <g id="Grupo_32" data-name="Grupo 32" transform="translate(913.96 26)">
      <g id="Grupo_2" data-name="Grupo 2">
        <g id="Grupo_1" data-name="Grupo 1">
          <path id="Caminho_1" data-name="Caminho 1" class="cls-1" d="M666.97,209.345c-.231-.907-1.058-1.694-2.092-.729a4.281,4.281,0,0,0-1.451,3.881c.207,1.448,1.844,2.718,1.78,3.4-.993,4.7-5.16,6.339-7.741,3.906,2.026-3.2,1.6-7.28-1.158-7.256-3,.025-6.419,4.662-2.9,10.358-1.431,3.077-3.416,3.723-4.328,3.393-.89-.321-1.135-2.579-.893-4.538.305-2.475.207-2.964-.712-3.533-1.708-1.06-3.941,1.228-5.548,3.737-.761,1.188-1.577,3.49-1.992,10.744-.062,1.083,1.2,1.767,1.738-1.314.311-1.777.508-3.231.94-5.182.46-2.087,1.914-3.217,1.925-2.528.04,2.473.62,5.774,1.739,6.814,2.836,2.637,6.529-.726,8.871-6.3a8.265,8.265,0,0,0,8.665-.187c2.62,2.314,10.5,3.045,9.819-3.432-.388-3.676-5.3-5.908-6.661-11.231M656,218.338c-.991-1.647-.606-3.165.184-3.446s.745,1.753-.184,3.446m9.956,2.581a11.614,11.614,0,0,0,.82-2.64,9.73,9.73,0,0,1,1.042,2.331c-.023,1.158-1.421.8-1.862.309" transform="translate(-574.669 -188.94)"/>
          <path id="Caminho_2" data-name="Caminho 2" class="cls-1" d="M794.3,147.666c-.748-3.224-3.957-3.075-7.047-5.971a4.1,4.1,0,0,1-1.178-2.587c-.354-1.7-2.941-.586-3.592.126-1.3,1.414-.874,2.141.3,4.579.266,2.636-.3,6.178-1.976,7.751a2.91,2.91,0,0,1-3.547.159c1.685-2.732,1.3-6.519-1.336-6.6-3.624-.1-6.331,6.016-2.425,10.319-.707,1.973-1.959,3.256-2.952,2.408-2.69-2.3-3.2-10.573-2.459-16.523,1.15-.751,5.562-3.408,6.946-4.2,1.722-.98,1.308-3.3-1-2.378a65.487,65.487,0,0,0-5.977,3.208c-.042-.3.578-3.968-1.76-3.98-1.979-.009-2.7,3.027-3.461,6.622a62.293,62.293,0,0,0-5.6,4.15c-.665.786-.467,2.336.62,1.845,1.325-.6,4.434-2.492,4.434-2.492-.38,1.808-2.141,11.455-2.38,14.789-.128,1.781,1.758,1.653,2.2-.251.415-1.785.349-.823.9-3.577,1.144,8.89,9.586,11.6,12.56,1.643,10.035.6,9.223-10.584,9.253-10.72,1.624,1.987,3.837,1.722,4.049,2.93a1.116,1.116,0,0,1-1.713.893c-.993-.478-1.755-.9-2.081.009-.266.737.962,3.624,4.872,3.2,2.436-.263,5.02-2.452,4.347-5.361m-18.9,3c-1.418-1.371-.622-3.541.168-3.427.889.128.331,2.771-.168,3.427" transform="translate(-662.978 -132.904)"/>
          <path id="Caminho_3" data-name="Caminho 3" class="cls-1" d="M587.122,204c-2.741,1.178-6.943,8.937-5.888,22.82a10.8,10.8,0,0,0-1.713,1c-.821.834.206,2.183,2.322,1.456,1.065,5.05,2.288,5.229,4.089,5.723,3.144.865.782-5.586.675-7.278,5.377-3.382,7.046-6.011,8.366-11.363,1.939-7.864-3.02-14.433-7.852-12.353m2.866,9.8c-1.325,7.992-3.354,9.752-4.3,10.562-.759-6.239.812-15.68,2.484-17.823,1.613-2.062,2.509,3.09,1.817,7.261" transform="translate(-528.827 -185.494)"/>
          <path id="Caminho_4" data-name="Caminho 4" class="cls-2" d="M373.248,228.56v12.111a12.112,12.112,0,0,0,24.224,0V228.56H373.248Z" transform="translate(-373.248 -204.337)"/>
          <path id="Caminho_5" data-name="Caminho 5" class="cls-3" d="M484.345,129.579H472.234V153.8h12.111a12.111,12.111,0,0,0,12.111-12.111v0a12.112,12.112,0,0,0-12.111-12.11" transform="translate(-448.01 -129.579)"/>
          <path id="Caminho_6" data-name="Caminho 6" class="cls-4" d="M385.358,129.579H373.246V153.8h24.225V129.579Z" transform="translate(-373.246 -129.579)"/>
        </g>
      </g>
    </g>
  </g>
</svg>
