<svg xmlns="http://www.w3.org/2000/svg" width="11.628" height="11.627" viewBox="0 0 11.628 11.627">
  <defs>
    <style>
      .cls-1 {
        fill: #01bfeb;
      }
    </style>
  </defs>
  <g id="Grupo_194" data-name="Grupo 194" transform="translate(-0.794 -0.794)">
    <path id="Caminho_366" data-name="Caminho 366" class="cls-1" d="M6.607.794A5.781,5.781,0,0,0,3.185,1.911L4.339,3.066A4.188,4.188,0,0,1,8.9,3.081l1.153-1.153A5.784,5.784,0,0,0,6.607.794ZM2.867,2.159a5.854,5.854,0,0,0-.708.709L3.3,4.011a4.215,4.215,0,0,1,.708-.71Zm7.5.02-1.14,1.14a4.288,4.288,0,0,1,.668.668l1.14-1.14A5.853,5.853,0,0,0,10.37,2.179Zm.92.985L10.136,4.318a4.188,4.188,0,0,1,.013,4.559L11.3,10.031a5.8,5.8,0,0,0-.014-6.867Zm-9.381.023a5.805,5.805,0,0,0,0,6.843L3.064,8.876a4.185,4.185,0,0,1,0-4.534Zm4.7,1.021a1.487,1.487,0,0,0-1.385.862l.577.4a.923.923,0,0,1,.782-.534.563.563,0,0,1,.63.574c0,.5-.477.687-.862.9a.972.972,0,0,0-.438.453,1.555,1.555,0,0,0-.106.588h.73a.543.543,0,0,1,.067-.28A1.206,1.206,0,0,1,7.028,6.8a1.5,1.5,0,0,0,.961-1.276A1.289,1.289,0,0,0,6.61,4.208ZM5.821,8.087v.921h.736V8.087ZM3.3,9.207,2.159,10.348a5.866,5.866,0,0,0,.71.709L4.01,9.916A4.244,4.244,0,0,1,3.3,9.207Zm6.612,0a4.263,4.263,0,0,1-.708.708l1.142,1.141a5.89,5.89,0,0,0,.708-.708Zm-5.572.944L3.185,11.306a5.807,5.807,0,0,0,6.843,0L8.873,10.152a4.185,4.185,0,0,1-4.533,0Z"/>
  </g>
</svg>
