<svg xmlns="http://www.w3.org/2000/svg" width="155.517" height="134.119" viewBox="0 0 155.517 134.119"><defs><style>.a{fill:#94cc09;}</style></defs><g transform="translate(-53.2 -67.2)"><g transform="translate(53.2 67.2)"><path class="a" d="M231.871,94.024V134.3H218.5v13.374h-13.45v13.45H191.6V174.5H178.224v13.45h-13.45v13.374H151.4V174.5h13.374V161.121H151.4v-13.45h13.374V134.3H151.4v-13.45h13.374V107.474H151.4V94.024h13.374V80.65h13.45V67.2h26.824V80.65H218.5V94.024Z" transform="translate(-76.355 -67.2)"/><path class="a" d="M107,94.024v13.45h13.068v13.374H107V134.3h13.068v13.374H107v13.45h13.068v26.824H106.848V174.5H93.474V161.121H80.024v-13.45H66.65V134.3H53.2V94.024H66.65V80.65H80.024V67.2h26.824V80.65h13.221V94.024Z" transform="translate(-53.2 -67.2)"/></g></g></svg>