<?xml version="1.0" encoding="utf-8"?>
<!-- Generator: Adobe Illustrator 24.3.0, SVG Export Plug-In . SVG Version: 6.00 Build 0)  -->
<svg version="1.1" id="Layer_1" xmlns="http://www.w3.org/2000/svg" xmlns:xlink="http://www.w3.org/1999/xlink" x="0px" y="0px"
	 viewBox="0 0 359 558" style="enable-background:new 0 0 359 558;" xml:space="preserve">
<style type="text/css">
	.st0{fill:#808080;}
	.st1{font-family:'Roboto-Regular';}
	.st2{font-size:15.0672px;}
</style>
<text transform="matrix(1 0 0 1 106.4313 310.5881)" class="st0 st1 st2">Imagem indisponível </text>
<g>
	<path class="st0" d="M150.8,279.6v-27c0-0.5,0.3-0.9,0.7-0.9H166v-1h0v-4.1c0-0.7,0.6-1.4,1.4-1.4h19.2c0.7,0,1.4,0.6,1.4,1.4v3.2
		h0v1.9H201c1.2,0,2.2,1,2.2,2.2v18.3h1.9v-18.3c0-2.3-1.8-4.1-4.1-4.1h-11.2v-3.2c0-1.8-1.5-3.3-3.3-3.3h-19.2
		c-1.8,0-3.3,1.5-3.3,3.3v3.2h-12.6c-1.5,0-2.6,1.3-2.6,2.8v27c0,2.4,1.8,4.4,4.1,4.4h40.1v-1.9H153
		C151.8,282.1,150.8,281,150.8,279.6z"/>
	<path class="st0" d="M176.5,254.1c-6,0-11,4.9-11,11s4.9,11,11,11c6,0,11-4.9,11-11S182.6,254.1,176.5,254.1z M176.5,274.1
		c-5,0-9-4.1-9-9s4.1-9,9-9c5,0,9.1,4.1,9.1,9S181.5,274.1,176.5,274.1z"/>
	<path class="st0" d="M189.2,257.2c0-0.7-0.6-1.3-1.3-1.3c-0.7,0-1.3,0.6-1.3,1.3c0,0.7,0.6,1.3,1.3,1.3
		C188.6,258.5,189.2,257.9,189.2,257.2z"/>
	<path class="st0" d="M202.5,278.8l3.7-3.7c0.4-0.4,0.4-1,0-1.3s-1-0.4-1.3,0l-3.7,3.7l-3.7-3.7c-0.4-0.4-1-0.4-1.3,0s-0.4,1,0,1.3
		l3.7,3.7l-3.7,3.7c-0.4,0.4-0.4,1,0,1.3c0.2,0.2,0.4,0.3,0.7,0.3c0.2,0,0.5-0.1,0.7-0.3l3.7-3.7l3.7,3.7c0.2,0.2,0.4,0.3,0.7,0.3
		c0.2,0,0.5-0.1,0.7-0.3c0.4-0.4,0.4-1,0-1.3L202.5,278.8z"/>
</g>
</svg>
