<?xml version="1.0" encoding="utf-8"?>
<!-- Generator: Adobe Illustrator 24.3.0, SVG Export Plug-In . SVG Version: 6.00 Build 0)  -->
<svg version="1.1" id="Layer_1" xmlns="http://www.w3.org/2000/svg" xmlns:xlink="http://www.w3.org/1999/xlink" x="0px" y="0px"
	 viewBox="0 0 536 484" style="enable-background:new 0 0 536 484;" xml:space="preserve">
<style type="text/css">
	.st0{fill:#808080;}
	.st1{font-family:'Roboto-Regular';}
	.st2{font-size:20.1766px;}
</style>
<text transform="matrix(1 0 0 1 170.1535 284.3008)" class="st0 st1 st2">Imagem indisponível </text>
<g>
	<path class="st0" d="M229.6,242.8v-36.2c0-0.7,0.4-1.2,1-1.2H250v-1.3h0v-5.5c0-1,0.8-1.8,1.8-1.8h25.7c1,0,1.8,0.8,1.8,1.8v4.3h0
		v2.6h17.5c1.6,0,2.9,1.3,2.9,2.9v24.5h2.6v-24.5c0-3-2.5-5.5-5.5-5.5h-14.9v-4.3c0-2.4-2-4.4-4.4-4.4h-25.7c-2.4,0-4.4,2-4.4,4.4
		v4.3h-16.9c-1.9,0-3.5,1.7-3.5,3.8v36.2c0,3.3,2.5,5.9,5.5,5.9h53.7v-2.6h-53.7C230.9,246.2,229.6,244.7,229.6,242.8z"/>
	<path class="st0" d="M264,208.6c-8.1,0-14.7,6.6-14.7,14.7c0,8.1,6.6,14.7,14.7,14.7c8.1,0,14.7-6.6,14.7-14.7
		C278.7,215.2,272.1,208.6,264,208.6z M264,235.4c-6.7,0-12.1-5.4-12.1-12.1s5.4-12.1,12.1-12.1c6.7,0,12.1,5.4,12.1,12.1
		S270.7,235.4,264,235.4z"/>
	<path class="st0" d="M281,212.8c0-1-0.8-1.8-1.8-1.8c-1,0-1.8,0.8-1.8,1.8c0,1,0.8,1.8,1.8,1.8C280.2,214.6,281,213.8,281,212.8z"
		/>
	<path class="st0" d="M298.8,241.7l4.9-4.9c0.5-0.5,0.5-1.3,0-1.8c-0.5-0.5-1.3-0.5-1.8,0l-4.9,4.9l-4.9-4.9c-0.5-0.5-1.3-0.5-1.8,0
		s-0.5,1.3,0,1.8l4.9,4.9l-4.9,4.9c-0.5,0.5-0.5,1.3,0,1.8c0.2,0.2,0.6,0.4,0.9,0.4c0.3,0,0.7-0.1,0.9-0.4l4.9-4.9l4.9,4.9
		c0.2,0.2,0.6,0.4,0.9,0.4c0.3,0,0.7-0.1,0.9-0.4c0.5-0.5,0.5-1.3,0-1.8L298.8,241.7z"/>
</g>
</svg>
